<?xml version="1.0" encoding="UTF-8" standalone="no"?>
<!-- Created with Inkscape (http://www.inkscape.org/) -->

<svg
   xmlns:dc="http://purl.org/dc/elements/1.1/"
   xmlns:cc="http://creativecommons.org/ns#"
   xmlns:rdf="http://www.w3.org/1999/02/22-rdf-syntax-ns#"
   xmlns:svg="http://www.w3.org/2000/svg"
   xmlns="http://www.w3.org/2000/svg"
   xmlns:sodipodi="http://sodipodi.sourceforge.net/DTD/sodipodi-0.dtd"
   xmlns:inkscape="http://www.inkscape.org/namespaces/inkscape"
   id="svg5487"
   version="1.1"
   inkscape:version="0.48.3.1 r9886"
   width="1106.5594"
   height="537.90626"
   xml:space="preserve"
   sodipodi:docname="lie2.svg"><metadata
     id="metadata5493"><rdf:RDF><cc:Work
         rdf:about=""><dc:format>image/svg+xml</dc:format><dc:type
           rdf:resource="http://purl.org/dc/dcmitype/StillImage" /></cc:Work></rdf:RDF></metadata><defs
     id="defs5491" /><sodipodi:namedview
     pagecolor="#ffffff"
     bordercolor="#666666"
     borderopacity="1"
     objecttolerance="10"
     gridtolerance="10"
     guidetolerance="10"
     inkscape:pageopacity="0"
     inkscape:pageshadow="2"
     inkscape:window-width="1301"
     inkscape:window-height="744"
     id="namedview5489"
     showgrid="false"
     inkscape:zoom="1.0555239"
     inkscape:cx="450.56551"
     inkscape:cy="313.63178"
     inkscape:window-x="65"
     inkscape:window-y="24"
     inkscape:window-maximized="1"
     inkscape:current-layer="g5495" /><g
     id="g5495"
     inkscape:groupmode="layer"
     inkscape:label="lie2"
     transform="matrix(1.25,0,0,-1.25,0,537.90626)"><g
       transform="matrix(1,0,0,-1,0,430.32501)"
       id="g5499"><path
         inkscape:connector-curvature="0"
         id="path5501"
         style="fill:none;stroke:#b9b9b9;stroke-width:1.84322405;stroke-linecap:butt;stroke-linejoin:miter;stroke-miterlimit:4;stroke-opacity:1;stroke-dasharray:none"
         d="m 104.57,70.219 743.754,0 0,323.184 -743.754,0 0,-323.184 z" /></g><g
       transform="matrix(1,0,0,-1,0,430.32501)"
       id="g5503"><path
         inkscape:connector-curvature="0"
         id="path5505"
         style="fill:none;stroke:#00d60a;stroke-width:1.848984;stroke-linecap:butt;stroke-linejoin:miter;stroke-miterlimit:4;stroke-opacity:1;stroke-dasharray:none"
         d="m 111.887,80.277 727.75,0 0,142.609 -727.75,0 0,-142.609 z" /></g><g
       transform="matrix(1,0,0,-1,0,430.32501)"
       id="g5507"><path
         inkscape:connector-curvature="0"
         id="path5509"
         style="fill:none;stroke:#00d60a;stroke-width:1.847543;stroke-linecap:butt;stroke-linejoin:miter;stroke-miterlimit:4;stroke-opacity:1;stroke-dasharray:none"
         d="m 112.344,237.648 726.609,0 0,142.609 -726.609,0 0,-142.609 z" /></g><g
       transform="matrix(1,0,0,-1,0,430.32501)"
       id="g5511"><path
         inkscape:connector-curvature="0"
         id="path5513"
         style="fill:none;stroke:#5e00d6;stroke-width:1.42958498;stroke-linecap:butt;stroke-linejoin:miter;stroke-miterlimit:4;stroke-opacity:1;stroke-dasharray:none"
         d="m 124.246,88.754 210.457,0 0,119.027 -210.457,0 0,-119.027 z" /></g><path
       inkscape:connector-curvature="0"
       id="path5515"
       style="fill:#ffdca0;fill-opacity:1;fill-rule:nonzero;stroke:none"
       d="m 368.59,340.427 210.457,0 0,-119.027 -210.457,0 0,119.027 z" /><g
       transform="matrix(1,0,0,-1,0,430.32501)"
       id="g5517"><path
         inkscape:connector-curvature="0"
         id="path5519"
         style="fill:none;stroke:#5e00d6;stroke-width:1.4296;stroke-linecap:butt;stroke-linejoin:miter;stroke-miterlimit:4;stroke-opacity:1;stroke-dasharray:none"
         d="m 368.59,89.898 210.457,0 0,119.027 -210.457,0 0,-119.027 z" /></g><path
       inkscape:connector-curvature="0"
       id="path5521"
       style="fill:#ffdca0;fill-opacity:1;fill-rule:nonzero;stroke:none"
       d="m 608.59,340.427 210.457,0 0,-119.027 -210.457,0 0,119.027 z" /><g
       transform="matrix(1,0,0,-1,0,430.32501)"
       id="g5523"><path
         inkscape:connector-curvature="0"
         id="path5525"
         style="fill:none;stroke:#5e00d6;stroke-width:1.42958498;stroke-linecap:butt;stroke-linejoin:miter;stroke-miterlimit:4;stroke-opacity:1;stroke-dasharray:none"
         d="m 608.59,89.898 210.457,0 0,119.027 -210.457,0 0,-119.027 z" /></g><path
       inkscape:connector-curvature="0"
       id="path5527"
       style="fill:#ffdca0;fill-opacity:1;fill-rule:nonzero;stroke:none"
       d="m 127.105,180.313 210.457,0 0,-119.027 -210.457,0 0,119.027 z" /><g
       transform="matrix(1,0,0,-1,0,430.32501)"
       id="g5529"><path
         inkscape:connector-curvature="0"
         id="path5531"
         style="fill:none;stroke:#5e00d6;stroke-width:1.42958498;stroke-linecap:butt;stroke-linejoin:miter;stroke-miterlimit:4;stroke-opacity:1;stroke-dasharray:none"
         d="m 127.105,250.012 210.457,0 0,119.027 -210.457,0 0,-119.027 z" /></g><path
       inkscape:connector-curvature="0"
       id="path5533"
       style="fill:#ffdca0;fill-opacity:1;fill-rule:nonzero;stroke:none"
       d="m 371.449,179.173 210.453,0 0,-119.027 -210.453,0 0,119.027 z" /><g
       transform="matrix(1,0,0,-1,0,430.32501)"
       id="g5535"><path
         inkscape:connector-curvature="0"
         id="path5537"
         style="fill:none;stroke:#5e00d6;stroke-width:1.42958498;stroke-linecap:butt;stroke-linejoin:miter;stroke-miterlimit:4;stroke-opacity:1;stroke-dasharray:none"
         d="m 371.449,251.152 210.453,0 0,119.027 -210.453,0 0,-119.027 z" /></g><g
       transform="matrix(1,0,0,-1,0,430.32501)"
       id="g5539"><path
         inkscape:connector-curvature="0"
         id="path5541"
         style="fill:none;stroke:#5e00d6;stroke-width:1.42958498;stroke-linecap:butt;stroke-linejoin:miter;stroke-miterlimit:4;stroke-opacity:1;stroke-dasharray:none"
         d="m 611.449,251.152 210.453,0 0,119.027 -210.453,0 0,-119.027 z" /></g><path
       inkscape:connector-curvature="0"
       id="path5543"
       style="fill:#000000;fill-opacity:1;fill-rule:nonzero;stroke:none"
       d="m 43.16,302.872 1.703,0 3.235,-4.797 3.203,4.797 1.703,0 -4.125,-6.109 0,-5.563 -1.594,0 0,5.563 -4.125,6.109 z m 14.781,0.469 c -0.699,-1.2 -1.218,-2.387 -1.562,-3.563 -0.336,-1.168 -0.5,-2.351 -0.5,-3.547 0,-1.211 0.164,-2.406 0.5,-3.593 0.344,-1.18 0.863,-2.36 1.562,-3.547 l -1.25,0 c -0.781,1.218 -1.371,2.422 -1.765,3.609 -0.387,1.188 -0.578,2.363 -0.578,3.531 0,1.157 0.191,2.321 0.578,3.5 0.383,1.176 0.972,2.379 1.765,3.61 l 1.25,0 z m 3.266,-10.813 2.578,0 0,8.906 -2.797,-0.562 0,1.437 2.782,0.563 1.578,0 0,-10.344 2.578,0 0,-1.328 -6.719,0 0,1.328 z m 9.484,10.813 1.25,0 c 0.782,-1.231 1.364,-2.434 1.75,-3.61 0.395,-1.179 0.594,-2.343 0.594,-3.5 0,-1.168 -0.199,-2.343 -0.594,-3.531 -0.386,-1.187 -0.968,-2.391 -1.75,-3.609 l -1.25,0 c 0.696,1.187 1.211,2.367 1.547,3.547 0.344,1.187 0.516,2.382 0.516,3.593 0,1.196 -0.172,2.379 -0.516,3.547 -0.336,1.176 -0.851,2.363 -1.547,3.563 z m 6.672,-4.875 10.016,0 0,-1.313 -10.016,0 0,1.313 z m 0,-3.188 10.016,0 0,-1.328 -10.016,0 0,1.328 z m 13.688,-2.75 2.578,0 0,8.906 -2.797,-0.562 0,1.437 2.781,0.563 1.578,0 0,-10.344 2.579,0 0,-1.328 -6.719,0 0,1.328 z" /><path
       inkscape:connector-curvature="0"
       id="path5545"
       style="fill:#000000;fill-opacity:1;fill-rule:nonzero;stroke:none"
       d="m 36,136.712 1.703,0 3.235,-4.797 3.203,4.797 1.703,0 -4.125,-6.11 0,-5.562 -1.594,0 0,5.562 -4.125,6.11 z m 14.781,0.468 c -0.699,-1.199 -1.219,-2.386 -1.562,-3.562 -0.336,-1.168 -0.5,-2.352 -0.5,-3.547 0,-1.211 0.164,-2.406 0.5,-3.594 0.343,-1.179 0.863,-2.359 1.562,-3.547 l -1.25,0 c -0.781,1.219 -1.371,2.422 -1.765,3.61 -0.387,1.187 -0.578,2.363 -0.578,3.531 0,1.156 0.191,2.32 0.578,3.5 0.382,1.176 0.972,2.379 1.765,3.609 l 1.25,0 z m 3.266,-10.812 2.578,0 0,8.906 -2.797,-0.562 0,1.437 2.781,0.563 1.579,0 0,-10.344 2.578,0 0,-1.328 -6.719,0 0,1.328 z m 9.484,10.812 1.25,0 c 0.781,-1.23 1.364,-2.433 1.75,-3.609 0.395,-1.18 0.594,-2.344 0.594,-3.5 0,-1.168 -0.199,-2.344 -0.594,-3.531 -0.386,-1.188 -0.969,-2.391 -1.75,-3.61 l -1.25,0 c 0.696,1.188 1.211,2.368 1.547,3.547 0.344,1.188 0.516,2.383 0.516,3.594 0,1.195 -0.172,2.379 -0.516,3.547 -0.336,1.176 -0.851,2.363 -1.547,3.562 z m 6.672,-4.875 10.016,0 0,-1.312 -10.016,0 0,1.312 z m 0,-3.187 10.016,0 0,-1.328 -10.016,0 0,1.328 z m 12.485,0.953 4.218,0 0,-1.281 -4.218,0 0,1.281 z m 6.984,-3.703 2.578,0 0,8.906 -2.797,-0.562 0,1.437 2.781,0.563 1.578,0 0,-10.344 2.579,0 0,-1.328 -6.719,0 0,1.328 z" /><path
       inkscape:connector-curvature="0"
       id="path5547"
       style="fill:#000000;fill-opacity:1;fill-rule:nonzero;stroke:none"
       d="m 183.887,392.255 1.703,0 3.234,-4.797 3.203,4.797 1.703,0 -4.125,-6.11 0,-5.562 -1.593,0 0,5.562 -4.125,6.11 z m 14.781,0.468 c -0.699,-1.199 -1.219,-2.386 -1.563,-3.562 -0.335,-1.168 -0.5,-2.352 -0.5,-3.547 0,-1.211 0.165,-2.406 0.5,-3.594 0.344,-1.179 0.864,-2.359 1.563,-3.547 l -1.25,0 c -0.781,1.219 -1.371,2.422 -1.766,3.61 -0.386,1.187 -0.578,2.363 -0.578,3.531 0,1.156 0.192,2.32 0.578,3.5 0.383,1.176 0.973,2.379 1.766,3.609 l 1.25,0 z m 4.359,-10.812 5.5,0 0,-1.328 -7.406,0 0,1.328 c 0.602,0.625 1.422,1.457 2.453,2.5 1.031,1.039 1.68,1.711 1.953,2.016 0.5,0.57 0.848,1.05 1.047,1.437 0.207,0.395 0.313,0.785 0.313,1.172 0,0.613 -0.219,1.113 -0.657,1.5 -0.437,0.394 -1.007,0.594 -1.703,0.594 -0.492,0 -1.011,-0.09 -1.562,-0.266 -0.555,-0.168 -1.141,-0.422 -1.766,-0.766 l 0,1.594 c 0.633,0.25 1.227,0.438 1.781,0.563 0.551,0.133 1.055,0.203 1.516,0.203 1.207,0 2.172,-0.305 2.891,-0.906 0.718,-0.606 1.078,-1.414 1.078,-2.422 0,-0.481 -0.09,-0.934 -0.266,-1.36 -0.179,-0.429 -0.508,-0.933 -0.984,-1.515 -0.125,-0.157 -0.539,-0.594 -1.235,-1.313 -0.699,-0.719 -1.683,-1.73 -2.953,-3.031 z m 8.391,10.812 1.25,0 c 0.781,-1.23 1.363,-2.433 1.75,-3.609 0.394,-1.18 0.594,-2.344 0.594,-3.5 0,-1.168 -0.2,-2.344 -0.594,-3.531 -0.387,-1.188 -0.969,-2.391 -1.75,-3.61 l -1.25,0 c 0.695,1.188 1.211,2.368 1.547,3.547 0.344,1.188 0.515,2.383 0.515,3.594 0,1.195 -0.171,2.379 -0.515,3.547 -0.336,1.176 -0.852,2.363 -1.547,3.562 z m 6.672,-4.875 10.015,0 0,-1.312 -10.015,0 0,1.312 z m 0,-3.187 10.015,0 0,-1.328 -10.015,0 0,1.328 z m 12.484,0.953 4.219,0 0,-1.281 -4.219,0 0,1.281 z m 8.078,-3.703 5.5,0 0,-1.328 -7.406,0 0,1.328 c 0.602,0.625 1.422,1.457 2.453,2.5 1.031,1.039 1.68,1.711 1.953,2.016 0.5,0.57 0.848,1.05 1.047,1.437 0.207,0.395 0.313,0.785 0.313,1.172 0,0.613 -0.219,1.113 -0.657,1.5 -0.437,0.394 -1.007,0.594 -1.703,0.594 -0.492,0 -1.011,-0.09 -1.562,-0.266 -0.555,-0.168 -1.141,-0.422 -1.766,-0.766 l 0,1.594 c 0.633,0.25 1.227,0.438 1.781,0.563 0.551,0.133 1.055,0.203 1.516,0.203 1.207,0 2.172,-0.305 2.891,-0.906 0.718,-0.606 1.078,-1.414 1.078,-2.422 0,-0.481 -0.09,-0.934 -0.266,-1.36 -0.179,-0.429 -0.508,-0.933 -0.984,-1.515 -0.125,-0.157 -0.539,-0.594 -1.235,-1.313 -0.699,-0.719 -1.683,-1.73 -2.953,-3.031 z" /><path
       inkscape:connector-curvature="0"
       id="path5549"
       style="fill:#000000;fill-opacity:1;fill-rule:nonzero;stroke:none"
       d="m 431.887,392.255 1.703,0 3.234,-4.797 3.203,4.797 1.703,0 -4.125,-6.11 0,-5.562 -1.593,0 0,5.562 -4.125,6.11 z m 14.781,0.468 c -0.699,-1.199 -1.219,-2.386 -1.563,-3.562 -0.335,-1.168 -0.5,-2.352 -0.5,-3.547 0,-1.211 0.165,-2.406 0.5,-3.594 0.344,-1.179 0.864,-2.359 1.563,-3.547 l -1.25,0 c -0.781,1.219 -1.371,2.422 -1.766,3.61 -0.386,1.187 -0.578,2.363 -0.578,3.531 0,1.156 0.192,2.32 0.578,3.5 0.383,1.176 0.973,2.379 1.766,3.609 l 1.25,0 z m 4.359,-10.812 5.5,0 0,-1.328 -7.406,0 0,1.328 c 0.602,0.625 1.422,1.457 2.453,2.5 1.031,1.039 1.68,1.711 1.953,2.016 0.5,0.57 0.848,1.05 1.047,1.437 0.207,0.395 0.313,0.785 0.313,1.172 0,0.613 -0.219,1.113 -0.657,1.5 -0.437,0.394 -1.007,0.594 -1.703,0.594 -0.492,0 -1.011,-0.09 -1.562,-0.266 -0.555,-0.168 -1.141,-0.422 -1.766,-0.766 l 0,1.594 c 0.633,0.25 1.227,0.438 1.781,0.563 0.551,0.133 1.055,0.203 1.516,0.203 1.207,0 2.172,-0.305 2.891,-0.906 0.718,-0.606 1.078,-1.414 1.078,-2.422 0,-0.481 -0.09,-0.934 -0.266,-1.36 -0.179,-0.429 -0.508,-0.933 -0.984,-1.515 -0.125,-0.157 -0.539,-0.594 -1.235,-1.313 -0.699,-0.719 -1.683,-1.73 -2.953,-3.031 z m 8.391,10.812 1.25,0 c 0.781,-1.23 1.363,-2.433 1.75,-3.609 0.394,-1.18 0.594,-2.344 0.594,-3.5 0,-1.168 -0.2,-2.344 -0.594,-3.531 -0.387,-1.188 -0.969,-2.391 -1.75,-3.61 l -1.25,0 c 0.695,1.188 1.211,2.368 1.547,3.547 0.344,1.188 0.515,2.383 0.515,3.594 0,1.195 -0.171,2.379 -0.515,3.547 -0.336,1.176 -0.852,2.363 -1.547,3.562 z m 6.672,-4.875 10.015,0 0,-1.312 -10.015,0 0,1.312 z m 0,-3.187 10.015,0 0,-1.328 -10.015,0 0,1.328 z m 16.797,6.547 c -0.813,0 -1.43,-0.403 -1.844,-1.203 -0.406,-0.793 -0.609,-1.992 -0.609,-3.594 0,-1.606 0.203,-2.809 0.609,-3.609 0.414,-0.793 1.031,-1.188 1.844,-1.188 0.812,0 1.422,0.395 1.828,1.188 0.414,0.8 0.625,2.003 0.625,3.609 0,1.602 -0.211,2.801 -0.625,3.594 -0.406,0.8 -1.016,1.203 -1.828,1.203 z m 0,1.25 c 1.301,0 2.297,-0.516 2.984,-1.547 0.695,-1.031 1.047,-2.531 1.047,-4.5 0,-1.969 -0.352,-3.477 -1.047,-4.516 -0.687,-1.031 -1.683,-1.547 -2.984,-1.547 -1.313,0 -2.313,0.516 -3,1.547 -0.688,1.039 -1.032,2.547 -1.032,4.516 0,1.969 0.344,3.469 1.032,4.5 0.687,1.031 1.687,1.547 3,1.547 z" /><path
       inkscape:connector-curvature="0"
       id="path5551"
       style="fill:#000000;fill-opacity:1;fill-rule:nonzero;stroke:none"
       d="m 684.688,393.856 1.703,0 3.234,-4.797 3.203,4.797 1.703,0 -4.125,-6.109 0,-5.563 -1.594,0 0,5.563 -4.124,6.109 z m 14.781,0.469 c -0.699,-1.199 -1.219,-2.387 -1.563,-3.562 -0.336,-1.168 -0.5,-2.352 -0.5,-3.547 0,-1.211 0.164,-2.407 0.5,-3.594 0.344,-1.18 0.864,-2.359 1.563,-3.547 l -1.25,0 c -0.781,1.219 -1.371,2.422 -1.766,3.609 -0.387,1.188 -0.578,2.364 -0.578,3.532 0,1.156 0.191,2.32 0.578,3.5 0.383,1.175 0.973,2.379 1.766,3.609 l 1.25,0 z m 4.359,-10.812 5.5,0 0,-1.329 -7.406,0 0,1.329 c 0.601,0.625 1.422,1.457 2.453,2.5 1.031,1.039 1.68,1.71 1.953,2.015 0.5,0.57 0.848,1.051 1.047,1.438 0.207,0.394 0.313,0.785 0.313,1.172 0,0.613 -0.219,1.113 -0.657,1.5 -0.437,0.394 -1.008,0.593 -1.703,0.593 -0.492,0 -1.012,-0.09 -1.562,-0.265 -0.555,-0.168 -1.141,-0.422 -1.766,-0.766 l 0,1.594 c 0.633,0.25 1.227,0.437 1.781,0.562 0.551,0.133 1.055,0.203 1.516,0.203 1.207,0 2.172,-0.304 2.891,-0.906 0.718,-0.605 1.078,-1.414 1.078,-2.422 0,-0.48 -0.09,-0.933 -0.266,-1.359 -0.18,-0.43 -0.508,-0.934 -0.984,-1.516 -0.125,-0.156 -0.539,-0.593 -1.235,-1.312 -0.699,-0.719 -1.683,-1.731 -2.953,-3.031 z m 8.391,10.812 1.25,0 c 0.781,-1.23 1.363,-2.434 1.75,-3.609 0.394,-1.18 0.593,-2.344 0.593,-3.5 0,-1.168 -0.199,-2.344 -0.593,-3.532 -0.387,-1.187 -0.969,-2.39 -1.75,-3.609 l -1.25,0 c 0.695,1.188 1.211,2.367 1.547,3.547 0.343,1.187 0.515,2.383 0.515,3.594 0,1.195 -0.172,2.379 -0.515,3.547 -0.336,1.175 -0.852,2.363 -1.547,3.562 z m 6.672,-4.875 10.015,0 0,-1.312 -10.015,0 0,1.312 z m 0,-3.187 10.015,0 0,-1.329 -10.015,0 0,1.329 z m 14.781,-2.75 5.5,0 0,-1.329 -7.406,0 0,1.329 c 0.601,0.625 1.422,1.457 2.453,2.5 1.031,1.039 1.679,1.71 1.953,2.015 0.5,0.57 0.848,1.051 1.047,1.438 0.207,0.394 0.312,0.785 0.312,1.172 0,0.613 -0.219,1.113 -0.656,1.5 -0.437,0.394 -1.008,0.593 -1.703,0.593 -0.492,0 -1.012,-0.09 -1.563,-0.265 -0.554,-0.168 -1.14,-0.422 -1.765,-0.766 l 0,1.594 c 0.633,0.25 1.226,0.437 1.781,0.562 0.551,0.133 1.055,0.203 1.516,0.203 1.207,0 2.171,-0.304 2.89,-0.906 0.719,-0.605 1.078,-1.414 1.078,-2.422 0,-0.48 -0.089,-0.933 -0.265,-1.359 -0.18,-0.43 -0.508,-0.934 -0.985,-1.516 -0.125,-0.156 -0.539,-0.593 -1.234,-1.312 -0.699,-0.719 -1.684,-1.731 -2.953,-3.031 z" /><path
       inkscape:connector-curvature="0"
       id="path5553"
       style="fill:#000000;fill-opacity:1;fill-rule:nonzero;stroke:none"
       d="m 388.715,313.856 7.375,0 0,-1.328 -5.797,0 0,-3.453 5.547,0 0,-1.328 -5.547,0 0,-4.234 5.937,0 0,-1.329 -7.515,0 0,11.672 z m 9.922,0.485 3.312,0 0,-1.11 -1.875,0 0,-12.047 1.875,0 0,-1.109 -3.312,0 0,14.266 z m 4.843,-0.485 1.704,0 3.234,-4.797 3.203,4.797 1.703,0 -4.125,-6.109 0,-5.563 -1.594,0 0,5.563 -4.125,6.109 z m 14.782,0.469 c -0.7,-1.199 -1.219,-2.387 -1.563,-3.562 -0.336,-1.168 -0.5,-2.352 -0.5,-3.547 0,-1.211 0.164,-2.407 0.5,-3.594 0.344,-1.18 0.863,-2.359 1.563,-3.547 l -1.25,0 c -0.782,1.219 -1.371,2.422 -1.766,3.609 -0.387,1.188 -0.578,2.364 -0.578,3.532 0,1.156 0.191,2.32 0.578,3.5 0.383,1.175 0.973,2.379 1.766,3.609 l 1.25,0 z m 7.781,-5.844 c 0.75,-0.168 1.336,-0.508 1.766,-1.015 0.425,-0.512 0.64,-1.141 0.64,-1.891 0,-1.148 -0.398,-2.039 -1.187,-2.672 -0.793,-0.637 -1.918,-0.953 -3.375,-0.953 -0.492,0 -0.996,0.055 -1.516,0.156 -0.523,0.094 -1.059,0.239 -1.609,0.438 l 0,1.515 c 0.437,-0.25 0.914,-0.445 1.437,-0.578 0.52,-0.125 1.067,-0.187 1.641,-0.187 0.988,0 1.738,0.191 2.25,0.578 0.519,0.394 0.781,0.961 0.781,1.703 0,0.688 -0.242,1.223 -0.719,1.609 -0.48,0.395 -1.152,0.594 -2.015,0.594 l -1.36,0 0,1.297 1.422,0 c 0.781,0 1.375,0.148 1.781,0.453 0.415,0.313 0.625,0.758 0.625,1.344 0,0.601 -0.214,1.062 -0.64,1.375 -0.43,0.32 -1.039,0.484 -1.828,0.484 -0.43,0 -0.891,-0.047 -1.391,-0.14 -0.492,-0.094 -1.031,-0.243 -1.625,-0.438 l 0,1.406 c 0.594,0.164 1.149,0.289 1.672,0.375 0.531,0.082 1.023,0.125 1.484,0.125 1.196,0 2.145,-0.273 2.844,-0.812 0.695,-0.543 1.047,-1.277 1.047,-2.203 0,-0.649 -0.188,-1.196 -0.563,-1.641 -0.367,-0.449 -0.886,-0.758 -1.562,-0.922 z m 4.969,5.844 1.25,0 c 0.781,-1.23 1.363,-2.434 1.75,-3.609 0.394,-1.18 0.593,-2.344 0.593,-3.5 0,-1.168 -0.199,-2.344 -0.593,-3.532 -0.387,-1.187 -0.969,-2.39 -1.75,-3.609 l -1.25,0 c 0.695,1.188 1.211,2.367 1.547,3.547 0.343,1.187 0.515,2.383 0.515,3.594 0,1.195 -0.172,2.379 -0.515,3.547 -0.336,1.175 -0.852,2.363 -1.547,3.562 z m 8.328,0.094 0,-16.016 -1.328,0 0,16.016 1.328,0 z m 2.015,-0.563 1.704,0 3.234,-4.797 3.203,4.797 1.703,0 -4.125,-6.109 0,-5.563 -1.594,0 0,5.563 -4.125,6.109 z m 14.782,0.469 c -0.699,-1.199 -1.219,-2.387 -1.563,-3.562 -0.336,-1.168 -0.5,-2.352 -0.5,-3.547 0,-1.211 0.164,-2.407 0.5,-3.594 0.344,-1.18 0.864,-2.359 1.563,-3.547 l -1.25,0 c -0.782,1.219 -1.371,2.422 -1.766,3.609 -0.387,1.188 -0.578,2.364 -0.578,3.532 0,1.156 0.191,2.32 0.578,3.5 0.383,1.175 0.973,2.379 1.766,3.609 l 1.25,0 z m 3.265,-10.812 2.578,0 0,8.906 -2.796,-0.563 0,1.438 2.781,0.562 1.578,0 0,-10.343 2.578,0 0,-1.329 -6.719,0 0,1.329 z m 9.485,10.812 1.25,0 c 0.781,-1.23 1.363,-2.434 1.75,-3.609 0.394,-1.18 0.593,-2.344 0.593,-3.5 0,-1.168 -0.199,-2.344 -0.593,-3.532 -0.387,-1.187 -0.969,-2.39 -1.75,-3.609 l -1.25,0 c 0.695,1.188 1.211,2.367 1.547,3.547 0.343,1.187 0.515,2.383 0.515,3.594 0,1.195 -0.172,2.379 -0.515,3.547 -0.336,1.175 -0.852,2.363 -1.547,3.562 z m 6.843,-10.156 1.657,0 0,-1.344 -1.282,-2.5 -1.015,0 0.64,2.5 0,1.344 z m 3.188,9.687 1.703,0 3.234,-4.797 3.204,4.797 1.703,0 -4.125,-6.109 0,-5.563 -1.594,0 0,5.563 -4.125,6.109 z m 14.781,0.469 c -0.699,-1.199 -1.219,-2.387 -1.562,-3.562 -0.336,-1.168 -0.5,-2.352 -0.5,-3.547 0,-1.211 0.164,-2.407 0.5,-3.594 0.343,-1.18 0.863,-2.359 1.562,-3.547 l -1.25,0 c -0.781,1.219 -1.371,2.422 -1.765,3.609 -0.387,1.188 -0.579,2.364 -0.579,3.532 0,1.156 0.192,2.32 0.579,3.5 0.382,1.175 0.972,2.379 1.765,3.609 l 1.25,0 z m 4.36,-10.812 5.5,0 0,-1.329 -7.407,0 0,1.329 c 0.602,0.625 1.422,1.457 2.453,2.5 1.032,1.039 1.68,1.71 1.954,2.015 0.5,0.57 0.847,1.051 1.046,1.438 0.207,0.394 0.313,0.785 0.313,1.172 0,0.613 -0.219,1.113 -0.656,1.5 -0.438,0.394 -1.008,0.593 -1.703,0.593 -0.493,0 -1.012,-0.09 -1.563,-0.265 -0.555,-0.168 -1.141,-0.422 -1.766,-0.766 l 0,1.594 c 0.633,0.25 1.227,0.437 1.782,0.562 0.55,0.133 1.054,0.203 1.515,0.203 1.207,0 2.172,-0.304 2.891,-0.906 0.719,-0.605 1.078,-1.414 1.078,-2.422 0,-0.48 -0.09,-0.933 -0.266,-1.359 -0.179,-0.43 -0.507,-0.934 -0.984,-1.516 -0.125,-0.156 -0.539,-0.593 -1.234,-1.312 -0.7,-0.719 -1.684,-1.731 -2.953,-3.031 z m 8.39,10.812 1.25,0 c 0.781,-1.23 1.363,-2.434 1.75,-3.609 0.395,-1.18 0.594,-2.344 0.594,-3.5 0,-1.168 -0.199,-2.344 -0.594,-3.532 -0.387,-1.187 -0.969,-2.39 -1.75,-3.609 l -1.25,0 c 0.696,1.188 1.211,2.367 1.547,3.547 0.344,1.187 0.516,2.383 0.516,3.594 0,1.195 -0.172,2.379 -0.516,3.547 -0.336,1.175 -0.851,2.363 -1.547,3.562 z m 9.844,0.016 0,-14.266 -3.313,0 0,1.109 1.86,0 0,12.047 -1.86,0 0,1.11 3.313,0 z m 3.078,-4.891 10.016,0 0,-1.312 -10.016,0 0,1.312 z m 0,-3.187 10.016,0 0,-1.329 -10.016,0 0,1.329 z m 16.797,6.546 c -0.813,0 -1.43,-0.402 -1.844,-1.203 -0.406,-0.793 -0.609,-1.992 -0.609,-3.593 0,-1.606 0.203,-2.809 0.609,-3.61 0.414,-0.793 1.031,-1.187 1.844,-1.187 0.812,0 1.422,0.394 1.828,1.187 0.414,0.801 0.625,2.004 0.625,3.61 0,1.601 -0.211,2.8 -0.625,3.593 -0.406,0.801 -1.016,1.203 -1.828,1.203 z m 0,1.25 c 1.301,0 2.297,-0.515 2.984,-1.546 0.696,-1.032 1.047,-2.532 1.047,-4.5 0,-1.969 -0.351,-3.477 -1.047,-4.516 -0.687,-1.031 -1.683,-1.547 -2.984,-1.547 -1.313,0 -2.313,0.516 -3,1.547 -0.688,1.039 -1.031,2.547 -1.031,4.516 0,1.968 0.343,3.468 1.031,4.5 0.687,1.031 1.687,1.546 3,1.546 z m 6.969,-9.89 1.656,0 0,-1.344 -1.281,-2.5 -1.016,0 0.641,2.5 0,1.344 z" /><path
       inkscape:connector-curvature="0"
       id="path5555"
       style="fill:#000000;fill-opacity:1;fill-rule:nonzero;stroke:none"
       d="m 390.043,283.497 0,-4.641 -1.453,0 0,12.078 1.453,0 0,-1.328 c 0.301,0.52 0.68,0.907 1.141,1.157 0.457,0.257 1.007,0.39 1.656,0.39 1.062,0 1.922,-0.422 2.578,-1.265 0.664,-0.844 1,-1.954 1,-3.329 0,-1.375 -0.336,-2.492 -1,-3.343 -0.656,-0.844 -1.516,-1.266 -2.578,-1.266 -0.649,0 -1.199,0.125 -1.656,0.375 -0.461,0.258 -0.84,0.648 -1.141,1.172 z m 4.891,3.062 c 0,1.051 -0.219,1.879 -0.657,2.485 -0.437,0.601 -1.039,0.906 -1.797,0.906 -0.761,0 -1.359,-0.305 -1.796,-0.906 -0.43,-0.606 -0.641,-1.434 -0.641,-2.485 0,-1.062 0.211,-1.898 0.641,-2.5 0.437,-0.593 1.035,-0.89 1.796,-0.89 0.758,0 1.36,0.297 1.797,0.89 0.438,0.602 0.657,1.438 0.657,2.5 z m 4.062,2.891 10.016,0 0,-1.312 -10.016,0 0,1.312 z m 0,-3.187 10.016,0 0,-1.329 -10.016,0 0,1.329 z m 13.688,-2.75 2.578,0 0,8.906 -2.797,-0.563 0,1.438 2.781,0.562 1.578,0 0,-10.343 2.578,0 0,-1.329 -6.718,0 0,1.329 z m 12.265,10.343 1.328,0 -4.062,-13.156 -1.328,0 4.062,13.156 z m 7.391,-1.375 -3.985,-6.234 3.985,0 0,6.234 z m -0.406,1.375 1.984,0 0,-7.609 1.656,0 0,-1.313 -1.656,0 0,-2.75 -1.578,0 0,2.75 -5.266,0 0,1.532 4.86,7.39 z" /><path
       inkscape:connector-curvature="0"
       id="path5557"
       style="fill:#000000;fill-opacity:1;fill-rule:nonzero;stroke:none"
       d="m 630.371,319.622 7.375,0 0,-1.328 -5.797,0 0,-3.453 5.547,0 0,-1.328 -5.547,0 0,-4.235 5.938,0 0,-1.328 -7.516,0 0,11.672 z m 9.922,0.484 3.312,0 0,-1.109 -1.875,0 0,-12.047 1.875,0 0,-1.109 -3.312,0 0,14.265 z m 4.844,-0.484 1.703,0 3.234,-4.797 3.203,4.797 1.703,0 -4.125,-6.109 0,-5.563 -1.593,0 0,5.563 -4.125,6.109 z m 14.781,0.469 c -0.699,-1.2 -1.219,-2.387 -1.563,-3.563 -0.335,-1.168 -0.5,-2.351 -0.5,-3.547 0,-1.211 0.165,-2.406 0.5,-3.593 0.344,-1.18 0.864,-2.36 1.563,-3.547 l -1.25,0 c -0.781,1.218 -1.371,2.422 -1.766,3.609 -0.386,1.188 -0.578,2.363 -0.578,3.531 0,1.157 0.192,2.321 0.578,3.5 0.383,1.176 0.973,2.379 1.766,3.61 l 1.25,0 z m 7.781,-5.844 c 0.75,-0.168 1.336,-0.508 1.766,-1.016 0.426,-0.511 0.64,-1.14 0.64,-1.89 0,-1.149 -0.398,-2.039 -1.187,-2.672 -0.793,-0.637 -1.918,-0.953 -3.375,-0.953 -0.492,0 -0.996,0.054 -1.516,0.156 -0.523,0.094 -1.058,0.238 -1.609,0.437 l 0,1.516 c 0.437,-0.25 0.914,-0.445 1.437,-0.578 0.52,-0.125 1.067,-0.188 1.641,-0.188 0.988,0 1.738,0.192 2.25,0.579 0.52,0.394 0.781,0.96 0.781,1.703 0,0.687 -0.242,1.222 -0.718,1.609 -0.481,0.395 -1.153,0.594 -2.016,0.594 l -1.359,0 0,1.297 1.421,0 c 0.782,0 1.375,0.148 1.782,0.453 0.414,0.312 0.625,0.758 0.625,1.344 0,0.601 -0.215,1.062 -0.641,1.375 -0.43,0.32 -1.039,0.484 -1.828,0.484 -0.43,0 -0.891,-0.047 -1.391,-0.141 -0.492,-0.093 -1.031,-0.242 -1.625,-0.437 l 0,1.406 c 0.594,0.164 1.149,0.289 1.672,0.375 0.531,0.082 1.024,0.125 1.485,0.125 1.195,0 2.144,-0.273 2.843,-0.812 0.696,-0.543 1.047,-1.278 1.047,-2.204 0,-0.648 -0.187,-1.195 -0.562,-1.64 -0.367,-0.449 -0.887,-0.758 -1.563,-0.922 z m 4.969,5.844 1.25,0 c 0.781,-1.231 1.363,-2.434 1.75,-3.61 0.394,-1.179 0.594,-2.343 0.594,-3.5 0,-1.168 -0.2,-2.343 -0.594,-3.531 -0.387,-1.187 -0.969,-2.391 -1.75,-3.609 l -1.25,0 c 0.695,1.187 1.211,2.367 1.547,3.547 0.344,1.187 0.515,2.382 0.515,3.593 0,1.196 -0.171,2.379 -0.515,3.547 -0.336,1.176 -0.852,2.363 -1.547,3.563 z m 8.328,0.093 0,-16.015 -1.328,0 0,16.015 1.328,0 z m 2.016,-0.562 1.703,0 3.234,-4.797 3.203,4.797 1.703,0 -4.125,-6.109 0,-5.563 -1.593,0 0,5.563 -4.125,6.109 z m 14.781,0.469 c -0.699,-1.2 -1.219,-2.387 -1.563,-3.563 -0.335,-1.168 -0.5,-2.351 -0.5,-3.547 0,-1.211 0.165,-2.406 0.5,-3.593 0.344,-1.18 0.864,-2.36 1.563,-3.547 l -1.25,0 c -0.781,1.218 -1.371,2.422 -1.766,3.609 -0.386,1.188 -0.578,2.363 -0.578,3.531 0,1.157 0.192,2.321 0.578,3.5 0.383,1.176 0.973,2.379 1.766,3.61 l 1.25,0 z m 3.266,-10.813 2.578,0 0,8.906 -2.797,-0.562 0,1.437 2.781,0.563 1.578,0 0,-10.344 2.578,0 0,-1.328 -6.718,0 0,1.328 z m 9.484,10.813 1.25,0 c 0.781,-1.231 1.363,-2.434 1.75,-3.61 0.395,-1.179 0.594,-2.343 0.594,-3.5 0,-1.168 -0.199,-2.343 -0.594,-3.531 -0.387,-1.187 -0.969,-2.391 -1.75,-3.609 l -1.25,0 c 0.695,1.187 1.211,2.367 1.547,3.547 0.344,1.187 0.515,2.382 0.515,3.593 0,1.196 -0.171,2.379 -0.515,3.547 -0.336,1.176 -0.852,2.363 -1.547,3.563 z m 6.844,-10.157 1.656,0 0,-1.343 -1.281,-2.5 -1.016,0 0.641,2.5 0,1.343 z m 3.187,9.688 1.703,0 3.235,-4.797 3.203,4.797 1.703,0 -4.125,-6.109 0,-5.563 -1.594,0 0,5.563 -4.125,6.109 z m 14.781,0.469 c -0.699,-1.2 -1.218,-2.387 -1.562,-3.563 -0.336,-1.168 -0.5,-2.351 -0.5,-3.547 0,-1.211 0.164,-2.406 0.5,-3.593 0.344,-1.18 0.863,-2.36 1.562,-3.547 l -1.25,0 c -0.781,1.218 -1.371,2.422 -1.765,3.609 -0.387,1.188 -0.578,2.363 -0.578,3.531 0,1.157 0.191,2.321 0.578,3.5 0.383,1.176 0.972,2.379 1.765,3.61 l 1.25,0 z m 4.36,-10.813 5.5,0 0,-1.328 -7.406,0 0,1.328 c 0.601,0.625 1.421,1.457 2.453,2.5 1.031,1.039 1.679,1.711 1.953,2.016 0.5,0.57 0.847,1.051 1.047,1.437 0.207,0.395 0.312,0.785 0.312,1.172 0,0.613 -0.219,1.113 -0.656,1.5 -0.438,0.395 -1.008,0.594 -1.703,0.594 -0.492,0 -1.012,-0.09 -1.563,-0.266 -0.554,-0.168 -1.14,-0.422 -1.765,-0.765 l 0,1.593 c 0.633,0.25 1.226,0.438 1.781,0.563 0.551,0.133 1.055,0.203 1.516,0.203 1.207,0 2.171,-0.305 2.89,-0.906 0.719,-0.606 1.078,-1.414 1.078,-2.422 0,-0.481 -0.09,-0.934 -0.265,-1.359 -0.18,-0.43 -0.508,-0.934 -0.985,-1.516 -0.125,-0.156 -0.539,-0.594 -1.234,-1.313 -0.699,-0.718 -1.684,-1.73 -2.953,-3.031 z m 8.39,10.813 1.25,0 c 0.782,-1.231 1.364,-2.434 1.75,-3.61 0.395,-1.179 0.594,-2.343 0.594,-3.5 0,-1.168 -0.199,-2.343 -0.594,-3.531 -0.386,-1.187 -0.968,-2.391 -1.75,-3.609 l -1.25,0 c 0.696,1.187 1.211,2.367 1.547,3.547 0.344,1.187 0.516,2.382 0.516,3.593 0,1.196 -0.172,2.379 -0.516,3.547 -0.336,1.176 -0.851,2.363 -1.547,3.563 z m 9.844,0.015 0,-14.265 -3.312,0 0,1.109 1.859,0 0,12.047 -1.859,0 0,1.109 3.312,0 z m 3.078,-4.89 10.016,0 0,-1.313 -10.016,0 0,1.313 z m 0,-3.188 10.016,0 0,-1.328 -10.016,0 0,1.328 z m 14.782,-2.75 5.5,0 0,-1.328 -7.407,0 0,1.328 c 0.602,0.625 1.422,1.457 2.453,2.5 1.032,1.039 1.68,1.711 1.954,2.016 0.5,0.57 0.847,1.051 1.046,1.437 0.207,0.395 0.313,0.785 0.313,1.172 0,0.613 -0.219,1.113 -0.656,1.5 -0.438,0.395 -1.008,0.594 -1.703,0.594 -0.493,0 -1.012,-0.09 -1.563,-0.266 -0.555,-0.168 -1.141,-0.422 -1.766,-0.765 l 0,1.593 c 0.633,0.25 1.227,0.438 1.782,0.563 0.55,0.133 1.054,0.203 1.515,0.203 1.207,0 2.172,-0.305 2.891,-0.906 0.719,-0.606 1.078,-1.414 1.078,-2.422 0,-0.481 -0.09,-0.934 -0.266,-1.359 -0.179,-0.43 -0.507,-0.934 -0.984,-1.516 -0.125,-0.156 -0.539,-0.594 -1.234,-1.313 -0.7,-0.718 -1.684,-1.73 -2.953,-3.031 z m 8.984,0.656 1.656,0 0,-1.343 -1.281,-2.5 -1.016,0 0.641,2.5 0,1.343 z" /><path
       inkscape:connector-curvature="0"
       id="path5559"
       style="fill:#000000;fill-opacity:1;fill-rule:nonzero;stroke:none"
       d="m 631.699,289.263 0,-4.641 -1.453,0 0,12.078 1.453,0 0,-1.328 c 0.301,0.519 0.68,0.906 1.141,1.156 0.457,0.258 1.008,0.391 1.656,0.391 1.063,0 1.922,-0.422 2.578,-1.266 0.664,-0.844 1,-1.953 1,-3.328 0,-1.375 -0.336,-2.492 -1,-3.344 -0.656,-0.843 -1.515,-1.265 -2.578,-1.265 -0.648,0 -1.199,0.125 -1.656,0.375 -0.461,0.257 -0.84,0.648 -1.141,1.172 z m 4.891,3.062 c 0,1.051 -0.219,1.879 -0.656,2.484 -0.438,0.602 -1.039,0.907 -1.797,0.907 -0.762,0 -1.36,-0.305 -1.797,-0.907 -0.43,-0.605 -0.641,-1.433 -0.641,-2.484 0,-1.062 0.211,-1.898 0.641,-2.5 0.437,-0.594 1.035,-0.891 1.797,-0.891 0.758,0 1.359,0.297 1.797,0.891 0.437,0.602 0.656,1.438 0.656,2.5 z m 4.062,2.891 10.016,0 0,-1.313 -10.016,0 0,1.313 z m 0,-3.188 10.016,0 0,-1.328 -10.016,0 0,1.328 z m 13.688,-2.75 2.578,0 0,8.906 -2.797,-0.562 0,1.437 2.781,0.563 1.578,0 0,-10.344 2.579,0 0,-1.328 -6.719,0 0,1.328 z m 12.265,10.344 1.329,0 -4.063,-13.156 -1.328,0 4.062,13.156 z m 7.391,-1.375 -3.984,-6.234 3.984,0 0,6.234 z m -0.406,1.375 1.984,0 0,-7.609 1.656,0 0,-1.313 -1.656,0 0,-2.75 -1.578,0 0,2.75 -5.266,0 0,1.531 4.86,7.391 z" /><path
       inkscape:connector-curvature="0"
       id="path5561"
       style="fill:#000000;fill-opacity:1;fill-rule:nonzero;stroke:none"
       d="m 391.055,158.481 7.375,0 0,-1.328 -5.797,0 0,-3.453 5.547,0 0,-1.328 -5.547,0 0,-4.234 5.937,0 0,-1.329 -7.515,0 0,11.672 z m 9.922,0.485 3.312,0 0,-1.11 -1.875,0 0,-12.047 1.875,0 0,-1.109 -3.312,0 0,14.266 z m 4.843,-0.485 1.703,0 3.235,-4.797 3.203,4.797 1.703,0 -4.125,-6.109 0,-5.563 -1.594,0 0,5.563 -4.125,6.109 z m 14.782,0.469 c -0.7,-1.199 -1.219,-2.387 -1.563,-3.562 -0.336,-1.168 -0.5,-2.352 -0.5,-3.547 0,-1.211 0.164,-2.407 0.5,-3.594 0.344,-1.18 0.863,-2.359 1.563,-3.547 l -1.25,0 c -0.782,1.219 -1.372,2.422 -1.766,3.609 -0.387,1.188 -0.578,2.364 -0.578,3.532 0,1.156 0.191,2.32 0.578,3.5 0.383,1.175 0.973,2.379 1.766,3.609 l 1.25,0 z m 7.781,-5.844 c 0.75,-0.168 1.336,-0.508 1.765,-1.015 0.426,-0.512 0.641,-1.141 0.641,-1.891 0,-1.148 -0.398,-2.039 -1.187,-2.672 -0.793,-0.637 -1.918,-0.953 -3.375,-0.953 -0.493,0 -0.997,0.055 -1.516,0.156 -0.523,0.094 -1.059,0.239 -1.609,0.438 l 0,1.515 c 0.437,-0.25 0.914,-0.445 1.437,-0.578 0.52,-0.125 1.066,-0.187 1.641,-0.187 0.988,0 1.738,0.191 2.25,0.578 0.519,0.394 0.781,0.961 0.781,1.703 0,0.688 -0.242,1.223 -0.719,1.609 -0.48,0.395 -1.152,0.594 -2.015,0.594 l -1.36,0 0,1.297 1.422,0 c 0.781,0 1.375,0.148 1.781,0.453 0.414,0.313 0.625,0.758 0.625,1.344 0,0.601 -0.215,1.062 -0.64,1.375 -0.43,0.32 -1.039,0.484 -1.828,0.484 -0.43,0 -0.891,-0.047 -1.391,-0.14 -0.492,-0.094 -1.031,-0.243 -1.625,-0.438 l 0,1.406 c 0.594,0.164 1.148,0.289 1.672,0.375 0.531,0.082 1.023,0.125 1.484,0.125 1.195,0 2.145,-0.273 2.844,-0.812 0.695,-0.543 1.047,-1.277 1.047,-2.203 0,-0.649 -0.188,-1.196 -0.563,-1.641 -0.367,-0.449 -0.886,-0.758 -1.562,-0.922 z m 4.969,5.844 1.25,0 c 0.781,-1.23 1.363,-2.434 1.75,-3.609 0.394,-1.18 0.593,-2.344 0.593,-3.5 0,-1.168 -0.199,-2.344 -0.593,-3.532 -0.387,-1.187 -0.969,-2.39 -1.75,-3.609 l -1.25,0 c 0.695,1.188 1.21,2.367 1.546,3.547 0.344,1.187 0.516,2.383 0.516,3.594 0,1.195 -0.172,2.379 -0.516,3.547 -0.336,1.175 -0.851,2.363 -1.546,3.562 z m 8.328,0.094 0,-16.016 -1.328,0 0,16.016 1.328,0 z m 2.015,-0.563 1.703,0 3.235,-4.797 3.203,4.797 1.703,0 -4.125,-6.109 0,-5.563 -1.594,0 0,5.563 -4.125,6.109 z m 14.782,0.469 c -0.7,-1.199 -1.219,-2.387 -1.563,-3.562 -0.336,-1.168 -0.5,-2.352 -0.5,-3.547 0,-1.211 0.164,-2.407 0.5,-3.594 0.344,-1.18 0.863,-2.359 1.563,-3.547 l -1.25,0 c -0.782,1.219 -1.372,2.422 -1.766,3.609 -0.387,1.188 -0.578,2.364 -0.578,3.532 0,1.156 0.191,2.32 0.578,3.5 0.383,1.175 0.973,2.379 1.766,3.609 l 1.25,0 z m 3.265,-10.812 2.578,0 0,8.906 -2.797,-0.563 0,1.438 2.782,0.562 1.578,0 0,-10.343 2.578,0 0,-1.329 -6.719,0 0,1.329 z m 9.485,10.812 1.25,0 c 0.781,-1.23 1.363,-2.434 1.75,-3.609 0.394,-1.18 0.593,-2.344 0.593,-3.5 0,-1.168 -0.199,-2.344 -0.593,-3.532 -0.387,-1.187 -0.969,-2.39 -1.75,-3.609 l -1.25,0 c 0.695,1.188 1.211,2.367 1.546,3.547 0.344,1.187 0.516,2.383 0.516,3.594 0,1.195 -0.172,2.379 -0.516,3.547 -0.335,1.175 -0.851,2.363 -1.546,3.562 z m 6.843,-10.156 1.657,0 0,-1.344 -1.282,-2.5 -1.015,0 0.64,2.5 0,1.344 z m 3.188,9.687 1.703,0 3.234,-4.797 3.203,4.797 1.704,0 -4.125,-6.109 0,-5.563 -1.594,0 0,5.563 -4.125,6.109 z m 14.781,0.469 c -0.699,-1.199 -1.219,-2.387 -1.562,-3.562 -0.336,-1.168 -0.5,-2.352 -0.5,-3.547 0,-1.211 0.164,-2.407 0.5,-3.594 0.343,-1.18 0.863,-2.359 1.562,-3.547 l -1.25,0 c -0.781,1.219 -1.371,2.422 -1.766,3.609 -0.386,1.188 -0.578,2.364 -0.578,3.532 0,1.156 0.192,2.32 0.578,3.5 0.383,1.175 0.973,2.379 1.766,3.609 l 1.25,0 z m 4.359,-10.812 5.5,0 0,-1.329 -7.406,0 0,1.329 c 0.602,0.625 1.422,1.457 2.453,2.5 1.032,1.039 1.68,1.71 1.953,2.015 0.5,0.57 0.848,1.051 1.047,1.438 0.207,0.394 0.313,0.785 0.313,1.172 0,0.613 -0.219,1.113 -0.656,1.5 -0.438,0.394 -1.008,0.593 -1.704,0.593 -0.492,0 -1.011,-0.09 -1.562,-0.265 -0.555,-0.168 -1.141,-0.422 -1.766,-0.766 l 0,1.594 c 0.633,0.25 1.227,0.437 1.782,0.562 0.55,0.133 1.054,0.203 1.515,0.203 1.207,0 2.172,-0.304 2.891,-0.906 0.719,-0.605 1.078,-1.414 1.078,-2.422 0,-0.48 -0.09,-0.933 -0.266,-1.359 -0.179,-0.43 -0.508,-0.934 -0.984,-1.516 -0.125,-0.156 -0.539,-0.593 -1.234,-1.312 -0.7,-0.719 -1.684,-1.731 -2.954,-3.031 z m 8.391,10.812 1.25,0 c 0.781,-1.23 1.363,-2.434 1.75,-3.609 0.395,-1.18 0.594,-2.344 0.594,-3.5 0,-1.168 -0.199,-2.344 -0.594,-3.532 -0.387,-1.187 -0.969,-2.39 -1.75,-3.609 l -1.25,0 c 0.695,1.188 1.211,2.367 1.547,3.547 0.344,1.187 0.516,2.383 0.516,3.594 0,1.195 -0.172,2.379 -0.516,3.547 -0.336,1.175 -0.852,2.363 -1.547,3.562 z m 9.844,0.016 0,-14.266 -3.313,0 0,1.109 1.86,0 0,12.047 -1.86,0 0,1.11 3.313,0 z m 3.078,-4.891 10.016,0 0,-1.312 -10.016,0 0,1.312 z m 0,-3.187 10.016,0 0,-1.329 -10.016,0 0,1.329 z m 16.797,6.546 c -0.813,0 -1.43,-0.402 -1.844,-1.203 -0.406,-0.793 -0.609,-1.992 -0.609,-3.593 0,-1.606 0.203,-2.809 0.609,-3.61 0.414,-0.793 1.031,-1.187 1.844,-1.187 0.812,0 1.422,0.394 1.828,1.187 0.414,0.801 0.625,2.004 0.625,3.61 0,1.601 -0.211,2.8 -0.625,3.593 -0.406,0.801 -1.016,1.203 -1.828,1.203 z m 0,1.25 c 1.301,0 2.297,-0.515 2.984,-1.546 0.696,-1.032 1.047,-2.532 1.047,-4.5 0,-1.969 -0.351,-3.477 -1.047,-4.516 -0.687,-1.031 -1.683,-1.547 -2.984,-1.547 -1.313,0 -2.313,0.516 -3,1.547 -0.688,1.039 -1.031,2.547 -1.031,4.516 0,1.968 0.343,3.468 1.031,4.5 0.687,1.031 1.687,1.546 3,1.546 z m 6.969,-9.89 1.656,0 0,-1.344 -1.281,-2.5 -1.016,0 0.641,2.5 0,1.344 z" /><path
       inkscape:connector-curvature="0"
       id="path5563"
       style="fill:#000000;fill-opacity:1;fill-rule:nonzero;stroke:none"
       d="m 392.383,128.122 0,-4.641 -1.453,0 0,12.078 1.453,0 0,-1.328 c 0.301,0.52 0.679,0.907 1.14,1.157 0.457,0.257 1.008,0.39 1.657,0.39 1.062,0 1.922,-0.422 2.578,-1.265 0.664,-0.844 1,-1.954 1,-3.329 0,-1.375 -0.336,-2.492 -1,-3.343 -0.656,-0.844 -1.516,-1.266 -2.578,-1.266 -0.649,0 -1.2,0.125 -1.657,0.375 -0.461,0.258 -0.839,0.648 -1.14,1.172 z m 4.89,3.062 c 0,1.051 -0.218,1.879 -0.656,2.485 -0.437,0.601 -1.039,0.906 -1.797,0.906 -0.761,0 -1.359,-0.305 -1.797,-0.906 -0.429,-0.606 -0.64,-1.434 -0.64,-2.485 0,-1.062 0.211,-1.898 0.64,-2.5 0.438,-0.593 1.036,-0.89 1.797,-0.89 0.758,0 1.36,0.297 1.797,0.89 0.438,0.602 0.656,1.438 0.656,2.5 z m 4.063,2.891 10.016,0 0,-1.312 -10.016,0 0,1.312 z m 0,-3.187 10.016,0 0,-1.329 -10.016,0 0,1.329 z m 13.687,-2.75 2.579,0 0,8.906 -2.797,-0.563 0,1.438 2.781,0.562 1.578,0 0,-10.343 2.578,0 0,-1.329 -6.719,0 0,1.329 z m 12.266,10.343 1.328,0 -4.062,-13.156 -1.328,0 4.062,13.156 z m 7.391,-1.375 -3.985,-6.234 3.985,0 0,6.234 z m -0.407,1.375 1.985,0 0,-7.609 1.656,0 0,-1.313 -1.656,0 0,-2.75 -1.578,0 0,2.75 -5.266,0 0,1.532 4.859,7.39 z" /><path
       inkscape:connector-curvature="0"
       id="path5565"
       style="fill:#000000;fill-opacity:1;fill-rule:nonzero;stroke:none"
       d="m 144.656,160.079 7.375,0 0,-1.328 -5.797,0 0,-3.453 5.547,0 0,-1.328 -5.547,0 0,-4.235 5.938,0 0,-1.328 -7.516,0 0,11.672 z m 9.922,0.484 3.313,0 0,-1.109 -1.875,0 0,-12.047 1.875,0 0,-1.109 -3.313,0 0,14.265 z m 4.844,-0.484 1.703,0 3.234,-4.797 3.203,4.797 1.704,0 -4.125,-6.109 0,-5.563 -1.594,0 0,5.563 -4.125,6.109 z m 14.781,0.469 c -0.699,-1.2 -1.219,-2.387 -1.562,-3.563 -0.336,-1.168 -0.5,-2.351 -0.5,-3.547 0,-1.211 0.164,-2.406 0.5,-3.593 0.343,-1.18 0.863,-2.36 1.562,-3.547 l -1.25,0 c -0.781,1.218 -1.371,2.422 -1.765,3.609 -0.387,1.188 -0.579,2.363 -0.579,3.531 0,1.157 0.192,2.321 0.579,3.5 0.382,1.176 0.972,2.379 1.765,3.61 l 1.25,0 z m 7.781,-5.844 c 0.75,-0.168 1.336,-0.508 1.766,-1.016 0.426,-0.511 0.641,-1.14 0.641,-1.89 0,-1.149 -0.399,-2.039 -1.188,-2.672 -0.793,-0.637 -1.918,-0.953 -3.375,-0.953 -0.492,0 -0.996,0.054 -1.516,0.156 -0.523,0.094 -1.058,0.238 -1.609,0.437 l 0,1.516 c 0.438,-0.25 0.914,-0.445 1.438,-0.578 0.519,-0.125 1.066,-0.188 1.64,-0.188 0.989,0 1.739,0.192 2.25,0.579 0.52,0.394 0.781,0.96 0.781,1.703 0,0.687 -0.242,1.222 -0.718,1.609 -0.481,0.395 -1.153,0.594 -2.016,0.594 l -1.359,0 0,1.297 1.422,0 c 0.781,0 1.375,0.148 1.781,0.453 0.414,0.312 0.625,0.758 0.625,1.344 0,0.601 -0.215,1.062 -0.641,1.375 -0.429,0.32 -1.039,0.484 -1.828,0.484 -0.43,0 -0.89,-0.047 -1.39,-0.141 -0.493,-0.093 -1.032,-0.242 -1.626,-0.437 l 0,1.406 c 0.594,0.164 1.149,0.289 1.672,0.375 0.532,0.082 1.024,0.125 1.485,0.125 1.195,0 2.144,-0.273 2.843,-0.812 0.696,-0.543 1.047,-1.278 1.047,-2.204 0,-0.648 -0.187,-1.195 -0.562,-1.64 -0.367,-0.449 -0.887,-0.758 -1.563,-0.922 z m 4.969,5.844 1.25,0 c 0.781,-1.231 1.363,-2.434 1.75,-3.61 0.395,-1.179 0.594,-2.343 0.594,-3.5 0,-1.168 -0.199,-2.343 -0.594,-3.531 -0.387,-1.187 -0.969,-2.391 -1.75,-3.609 l -1.25,0 c 0.695,1.187 1.211,2.367 1.547,3.547 0.344,1.187 0.516,2.382 0.516,3.593 0,1.196 -0.172,2.379 -0.516,3.547 -0.336,1.176 -0.852,2.363 -1.547,3.563 z m 8.328,0.093 0,-16.015 -1.328,0 0,16.015 1.328,0 z m 2.016,-0.562 1.703,0 3.234,-4.797 3.204,4.797 1.703,0 -4.125,-6.109 0,-5.563 -1.594,0 0,5.563 -4.125,6.109 z m 14.781,0.469 c -0.699,-1.2 -1.219,-2.387 -1.562,-3.563 -0.336,-1.168 -0.5,-2.351 -0.5,-3.547 0,-1.211 0.164,-2.406 0.5,-3.593 0.343,-1.18 0.863,-2.36 1.562,-3.547 l -1.25,0 c -0.781,1.218 -1.371,2.422 -1.766,3.609 -0.386,1.188 -0.578,2.363 -0.578,3.531 0,1.157 0.192,2.321 0.578,3.5 0.383,1.176 0.973,2.379 1.766,3.61 l 1.25,0 z m 3.266,-10.813 2.578,0 0,8.906 -2.797,-0.562 0,1.437 2.781,0.563 1.578,0 0,-10.344 2.578,0 0,-1.328 -6.718,0 0,1.328 z m 9.484,10.813 1.25,0 c 0.781,-1.231 1.363,-2.434 1.75,-3.61 0.395,-1.179 0.594,-2.343 0.594,-3.5 0,-1.168 -0.199,-2.343 -0.594,-3.531 -0.387,-1.187 -0.969,-2.391 -1.75,-3.609 l -1.25,0 c 0.695,1.187 1.211,2.367 1.547,3.547 0.344,1.187 0.516,2.382 0.516,3.593 0,1.196 -0.172,2.379 -0.516,3.547 -0.336,1.176 -0.852,2.363 -1.547,3.563 z m 6.844,-10.157 1.656,0 0,-1.343 -1.281,-2.5 -1.016,0 0.641,2.5 0,1.343 z m 3.187,9.688 1.703,0 3.235,-4.797 3.203,4.797 1.703,0 -4.125,-6.109 0,-5.563 -1.594,0 0,5.563 -4.125,6.109 z m 14.782,0.469 c -0.7,-1.2 -1.219,-2.387 -1.563,-3.563 -0.336,-1.168 -0.5,-2.351 -0.5,-3.547 0,-1.211 0.164,-2.406 0.5,-3.593 0.344,-1.18 0.863,-2.36 1.563,-3.547 l -1.25,0 c -0.782,1.218 -1.371,2.422 -1.766,3.609 -0.387,1.188 -0.578,2.363 -0.578,3.531 0,1.157 0.191,2.321 0.578,3.5 0.383,1.176 0.973,2.379 1.766,3.61 l 1.25,0 z m 4.359,-10.813 5.5,0 0,-1.328 -7.406,0 0,1.328 c 0.601,0.625 1.422,1.457 2.453,2.5 1.031,1.039 1.68,1.711 1.953,2.016 0.5,0.57 0.848,1.051 1.047,1.437 0.207,0.395 0.312,0.785 0.312,1.172 0,0.613 -0.218,1.113 -0.656,1.5 -0.437,0.395 -1.008,0.594 -1.703,0.594 -0.492,0 -1.012,-0.09 -1.562,-0.266 -0.555,-0.168 -1.141,-0.422 -1.766,-0.765 l 0,1.593 c 0.633,0.25 1.226,0.438 1.781,0.563 0.551,0.133 1.055,0.203 1.516,0.203 1.207,0 2.172,-0.305 2.89,-0.906 0.719,-0.606 1.079,-1.414 1.079,-2.422 0,-0.481 -0.09,-0.934 -0.266,-1.359 -0.18,-0.43 -0.508,-0.934 -0.984,-1.516 -0.126,-0.156 -0.54,-0.594 -1.235,-1.313 -0.699,-0.718 -1.683,-1.73 -2.953,-3.031 z m 8.391,10.813 1.25,0 c 0.781,-1.231 1.363,-2.434 1.75,-3.61 0.394,-1.179 0.593,-2.343 0.593,-3.5 0,-1.168 -0.199,-2.343 -0.593,-3.531 -0.387,-1.187 -0.969,-2.391 -1.75,-3.609 l -1.25,0 c 0.695,1.187 1.211,2.367 1.547,3.547 0.343,1.187 0.515,2.382 0.515,3.593 0,1.196 -0.172,2.379 -0.515,3.547 -0.336,1.176 -0.852,2.363 -1.547,3.563 z m 9.843,0.015 0,-14.265 -3.312,0 0,1.109 1.859,0 0,12.047 -1.859,0 0,1.109 3.312,0 z m 3.078,-4.89 10.016,0 0,-1.313 -10.016,0 0,1.313 z m 0,-3.188 10.016,0 0,-1.328 -10.016,0 0,1.328 z m 12.485,0.953 4.219,0 0,-1.281 -4.219,0 0,1.281 z m 8.078,-3.703 5.5,0 0,-1.328 -7.406,0 0,1.328 c 0.601,0.625 1.422,1.457 2.453,2.5 1.031,1.039 1.68,1.711 1.953,2.016 0.5,0.57 0.848,1.051 1.047,1.437 0.207,0.395 0.312,0.785 0.312,1.172 0,0.613 -0.218,1.113 -0.656,1.5 -0.437,0.395 -1.008,0.594 -1.703,0.594 -0.492,0 -1.012,-0.09 -1.563,-0.266 -0.554,-0.168 -1.14,-0.422 -1.765,-0.765 l 0,1.593 c 0.633,0.25 1.226,0.438 1.781,0.563 0.551,0.133 1.055,0.203 1.516,0.203 1.207,0 2.172,-0.305 2.89,-0.906 0.719,-0.606 1.078,-1.414 1.078,-2.422 0,-0.481 -0.089,-0.934 -0.265,-1.359 -0.18,-0.43 -0.508,-0.934 -0.985,-1.516 -0.124,-0.156 -0.539,-0.594 -1.234,-1.313 -0.699,-0.718 -1.683,-1.73 -2.953,-3.031 z m 8.984,0.656 1.657,0 0,-1.343 -1.282,-2.5 -1.015,0 0.64,2.5 0,1.343 z" /><path
       inkscape:connector-curvature="0"
       id="path5567"
       style="fill:#000000;fill-opacity:1;fill-rule:nonzero;stroke:none"
       d="m 145.984,129.72 0,-4.641 -1.453,0 0,12.078 1.453,0 0,-1.328 c 0.301,0.519 0.68,0.906 1.141,1.156 0.457,0.258 1.008,0.391 1.656,0.391 1.063,0 1.922,-0.422 2.578,-1.266 0.664,-0.844 1,-1.953 1,-3.328 0,-1.375 -0.336,-2.492 -1,-3.344 -0.656,-0.843 -1.515,-1.265 -2.578,-1.265 -0.648,0 -1.199,0.125 -1.656,0.375 -0.461,0.257 -0.84,0.648 -1.141,1.172 z m 4.891,3.062 c 0,1.051 -0.219,1.879 -0.656,2.484 -0.438,0.602 -1.039,0.907 -1.797,0.907 -0.762,0 -1.36,-0.305 -1.797,-0.907 -0.43,-0.605 -0.641,-1.433 -0.641,-2.484 0,-1.062 0.211,-1.898 0.641,-2.5 0.437,-0.594 1.035,-0.891 1.797,-0.891 0.758,0 1.359,0.297 1.797,0.891 0.437,0.602 0.656,1.438 0.656,2.5 z m 4.063,2.891 10.015,0 0,-1.313 -10.015,0 0,1.313 z m 0,-3.188 10.015,0 0,-1.328 -10.015,0 0,1.328 z m 13.687,-2.75 2.578,0 0,8.906 -2.797,-0.562 0,1.437 2.782,0.563 1.578,0 0,-10.344 2.578,0 0,-1.328 -6.719,0 0,1.328 z m 12.266,10.344 1.328,0 -4.063,-13.156 -1.328,0 4.063,13.156 z m 7.39,-1.375 -3.984,-6.234 3.984,0 0,6.234 z m -0.406,1.375 1.984,0 0,-7.609 1.657,0 0,-1.313 -1.657,0 0,-2.75 -1.578,0 0,2.75 -5.265,0 0,1.531 4.859,7.391 z" /></g></svg>